<svg xmlns="http://www.w3.org/2000/svg" xmlns:xlink="http://www.w3.org/1999/xlink" width="1920" zoomAndPan="magnify" viewBox="0 0 1440 809.999993" height="1080" preserveAspectRatio="xMidYMid meet" version="1.0"><defs><g/></defs><g fill="#ff00ff" fill-opacity="1"><g transform="translate(74.467298, 327.638408)"><g><path d="M 65.1875 0 L 26.328125 0 C 23.148438 0 20.847656 -0.707031 19.421875 -2.125 C 18.003906 -3.550781 17.296875 -5.851562 17.296875 -9.03125 L 17.296875 -171.5 C 17.296875 -174.675781 18.003906 -176.972656 19.421875 -178.390625 C 20.847656 -179.816406 23.148438 -180.53125 26.328125 -180.53125 L 65.1875 -180.53125 C 68.363281 -180.53125 70.660156 -179.816406 72.078125 -178.390625 C 73.503906 -176.972656 74.21875 -174.675781 74.21875 -171.5 L 74.21875 -113.828125 L 84.25 -113.828125 L 110.078125 -172.25 C 111.242188 -175.257812 112.828125 -177.390625 114.828125 -178.640625 C 116.835938 -179.898438 119.429688 -180.53125 122.609375 -180.53125 L 161.21875 -180.53125 C 164.0625 -180.53125 165.984375 -179.816406 166.984375 -178.390625 C 167.992188 -176.972656 167.910156 -174.925781 166.734375 -172.25 L 141.15625 -113.828125 C 150.519531 -113.328125 158 -110.023438 163.59375 -103.921875 C 169.195312 -97.828125 172 -89.765625 172 -79.734375 L 172 -9.03125 C 172 -5.851562 171.285156 -3.550781 169.859375 -2.125 C 168.441406 -0.707031 166.148438 0 162.984375 0 L 124.359375 0 C 121.179688 0 118.882812 -0.707031 117.46875 -2.125 C 116.050781 -3.550781 115.34375 -5.851562 115.34375 -9.03125 L 115.34375 -57.921875 C 115.34375 -60.597656 114.671875 -62.6875 113.328125 -64.1875 C 111.992188 -65.6875 109.988281 -66.4375 107.3125 -66.4375 L 74.21875 -66.4375 L 74.21875 -9.03125 C 74.21875 -5.851562 73.503906 -3.550781 72.078125 -2.125 C 70.660156 -0.707031 68.363281 0 65.1875 0 Z M 65.1875 0 "/></g></g></g><g fill="#ff00ff" fill-opacity="1"><g transform="translate(261.513703, 327.638408)"><g><path d="M 101.046875 0 L 21.8125 0 C 18.632812 0 16.332031 -0.707031 14.90625 -2.125 C 13.488281 -3.550781 12.78125 -5.851562 12.78125 -9.03125 L 12.78125 -38.359375 C 12.78125 -41.535156 13.488281 -43.832031 14.90625 -45.25 C 16.332031 -46.675781 18.632812 -47.390625 21.8125 -47.390625 L 89.265625 -47.390625 C 91.429688 -47.390625 93.054688 -48.097656 94.140625 -49.515625 C 95.234375 -50.941406 95.78125 -52.65625 95.78125 -54.65625 C 95.78125 -57.5 95.234375 -59.585938 94.140625 -60.921875 C 93.054688 -62.265625 91.429688 -63.019531 89.265625 -63.1875 L 51.65625 -68.453125 C 39.945312 -70.117188 30.539062 -73.960938 23.4375 -79.984375 C 16.332031 -86.003906 12.78125 -96.035156 12.78125 -110.078125 L 12.78125 -136.40625 C 12.78125 -150.613281 17.378906 -161.519531 26.578125 -169.125 C 35.773438 -176.726562 48.476562 -180.53125 64.6875 -180.53125 L 134.890625 -180.53125 C 138.066406 -180.53125 140.363281 -179.816406 141.78125 -178.390625 C 143.207031 -176.972656 143.921875 -174.675781 143.921875 -171.5 L 143.921875 -141.671875 C 143.921875 -138.492188 143.207031 -136.191406 141.78125 -134.765625 C 140.363281 -133.347656 138.066406 -132.640625 134.890625 -132.640625 L 76.46875 -132.640625 C 74.300781 -132.640625 72.628906 -131.925781 71.453125 -130.5 C 70.285156 -129.082031 69.703125 -127.285156 69.703125 -125.109375 C 69.703125 -122.941406 70.285156 -121.101562 71.453125 -119.59375 C 72.628906 -118.09375 74.300781 -117.257812 76.46875 -117.09375 L 113.828125 -112.078125 C 125.535156 -110.410156 134.984375 -106.566406 142.171875 -100.546875 C 149.359375 -94.523438 152.953125 -84.492188 152.953125 -70.453125 L 152.953125 -44.125 C 152.953125 -29.914062 148.3125 -19.007812 139.03125 -11.40625 C 129.75 -3.800781 117.085938 0 101.046875 0 Z M 101.046875 0 "/></g></g></g><g fill="#00ffff" fill-opacity="1"><g transform="translate(87.532706, 315.454718)"><g><path d="M 65.1875 0 L 26.328125 0 C 23.148438 0 20.847656 -0.707031 19.421875 -2.125 C 18.003906 -3.550781 17.296875 -5.851562 17.296875 -9.03125 L 17.296875 -171.5 C 17.296875 -174.675781 18.003906 -176.972656 19.421875 -178.390625 C 20.847656 -179.816406 23.148438 -180.53125 26.328125 -180.53125 L 65.1875 -180.53125 C 68.363281 -180.53125 70.660156 -179.816406 72.078125 -178.390625 C 73.503906 -176.972656 74.21875 -174.675781 74.21875 -171.5 L 74.21875 -113.828125 L 84.25 -113.828125 L 110.078125 -172.25 C 111.242188 -175.257812 112.828125 -177.390625 114.828125 -178.640625 C 116.835938 -179.898438 119.429688 -180.53125 122.609375 -180.53125 L 161.21875 -180.53125 C 164.0625 -180.53125 165.984375 -179.816406 166.984375 -178.390625 C 167.992188 -176.972656 167.910156 -174.925781 166.734375 -172.25 L 141.15625 -113.828125 C 150.519531 -113.328125 158 -110.023438 163.59375 -103.921875 C 169.195312 -97.828125 172 -89.765625 172 -79.734375 L 172 -9.03125 C 172 -5.851562 171.285156 -3.550781 169.859375 -2.125 C 168.441406 -0.707031 166.148438 0 162.984375 0 L 124.359375 0 C 121.179688 0 118.882812 -0.707031 117.46875 -2.125 C 116.050781 -3.550781 115.34375 -5.851562 115.34375 -9.03125 L 115.34375 -57.921875 C 115.34375 -60.597656 114.671875 -62.6875 113.328125 -64.1875 C 111.992188 -65.6875 109.988281 -66.4375 107.3125 -66.4375 L 74.21875 -66.4375 L 74.21875 -9.03125 C 74.21875 -5.851562 73.503906 -3.550781 72.078125 -2.125 C 70.660156 -0.707031 68.363281 0 65.1875 0 Z M 65.1875 0 "/></g></g></g><g fill="#00ffff" fill-opacity="1"><g transform="translate(274.579111, 315.454718)"><g><path d="M 101.046875 0 L 21.8125 0 C 18.632812 0 16.332031 -0.707031 14.90625 -2.125 C 13.488281 -3.550781 12.78125 -5.851562 12.78125 -9.03125 L 12.78125 -38.359375 C 12.78125 -41.535156 13.488281 -43.832031 14.90625 -45.25 C 16.332031 -46.675781 18.632812 -47.390625 21.8125 -47.390625 L 89.265625 -47.390625 C 91.429688 -47.390625 93.054688 -48.097656 94.140625 -49.515625 C 95.234375 -50.941406 95.78125 -52.65625 95.78125 -54.65625 C 95.78125 -57.5 95.234375 -59.585938 94.140625 -60.921875 C 93.054688 -62.265625 91.429688 -63.019531 89.265625 -63.1875 L 51.65625 -68.453125 C 39.945312 -70.117188 30.539062 -73.960938 23.4375 -79.984375 C 16.332031 -86.003906 12.78125 -96.035156 12.78125 -110.078125 L 12.78125 -136.40625 C 12.78125 -150.613281 17.378906 -161.519531 26.578125 -169.125 C 35.773438 -176.726562 48.476562 -180.53125 64.6875 -180.53125 L 134.890625 -180.53125 C 138.066406 -180.53125 140.363281 -179.816406 141.78125 -178.390625 C 143.207031 -176.972656 143.921875 -174.675781 143.921875 -171.5 L 143.921875 -141.671875 C 143.921875 -138.492188 143.207031 -136.191406 141.78125 -134.765625 C 140.363281 -133.347656 138.066406 -132.640625 134.890625 -132.640625 L 76.46875 -132.640625 C 74.300781 -132.640625 72.628906 -131.925781 71.453125 -130.5 C 70.285156 -129.082031 69.703125 -127.285156 69.703125 -125.109375 C 69.703125 -122.941406 70.285156 -121.101562 71.453125 -119.59375 C 72.628906 -118.09375 74.300781 -117.257812 76.46875 -117.09375 L 113.828125 -112.078125 C 125.535156 -110.410156 134.984375 -106.566406 142.171875 -100.546875 C 149.359375 -94.523438 152.953125 -84.492188 152.953125 -70.453125 L 152.953125 -44.125 C 152.953125 -29.914062 148.3125 -19.007812 139.03125 -11.40625 C 129.75 -3.800781 117.085938 0 101.046875 0 Z M 101.046875 0 "/></g></g></g><g fill="#7843e6" fill-opacity="1"><g transform="translate(81.000002, 321.546563)"><g><path d="M 65.1875 0 L 26.328125 0 C 23.148438 0 20.847656 -0.707031 19.421875 -2.125 C 18.003906 -3.550781 17.296875 -5.851562 17.296875 -9.03125 L 17.296875 -171.5 C 17.296875 -174.675781 18.003906 -176.972656 19.421875 -178.390625 C 20.847656 -179.816406 23.148438 -180.53125 26.328125 -180.53125 L 65.1875 -180.53125 C 68.363281 -180.53125 70.660156 -179.816406 72.078125 -178.390625 C 73.503906 -176.972656 74.21875 -174.675781 74.21875 -171.5 L 74.21875 -113.828125 L 84.25 -113.828125 L 110.078125 -172.25 C 111.242188 -175.257812 112.828125 -177.390625 114.828125 -178.640625 C 116.835938 -179.898438 119.429688 -180.53125 122.609375 -180.53125 L 161.21875 -180.53125 C 164.0625 -180.53125 165.984375 -179.816406 166.984375 -178.390625 C 167.992188 -176.972656 167.910156 -174.925781 166.734375 -172.25 L 141.15625 -113.828125 C 150.519531 -113.328125 158 -110.023438 163.59375 -103.921875 C 169.195312 -97.828125 172 -89.765625 172 -79.734375 L 172 -9.03125 C 172 -5.851562 171.285156 -3.550781 169.859375 -2.125 C 168.441406 -0.707031 166.148438 0 162.984375 0 L 124.359375 0 C 121.179688 0 118.882812 -0.707031 117.46875 -2.125 C 116.050781 -3.550781 115.34375 -5.851562 115.34375 -9.03125 L 115.34375 -57.921875 C 115.34375 -60.597656 114.671875 -62.6875 113.328125 -64.1875 C 111.992188 -65.6875 109.988281 -66.4375 107.3125 -66.4375 L 74.21875 -66.4375 L 74.21875 -9.03125 C 74.21875 -5.851562 73.503906 -3.550781 72.078125 -2.125 C 70.660156 -0.707031 68.363281 0 65.1875 0 Z M 65.1875 0 "/></g></g></g><g fill="#7843e6" fill-opacity="1"><g transform="translate(268.046407, 321.546563)"><g><path d="M 101.046875 0 L 21.8125 0 C 18.632812 0 16.332031 -0.707031 14.90625 -2.125 C 13.488281 -3.550781 12.78125 -5.851562 12.78125 -9.03125 L 12.78125 -38.359375 C 12.78125 -41.535156 13.488281 -43.832031 14.90625 -45.25 C 16.332031 -46.675781 18.632812 -47.390625 21.8125 -47.390625 L 89.265625 -47.390625 C 91.429688 -47.390625 93.054688 -48.097656 94.140625 -49.515625 C 95.234375 -50.941406 95.78125 -52.65625 95.78125 -54.65625 C 95.78125 -57.5 95.234375 -59.585938 94.140625 -60.921875 C 93.054688 -62.265625 91.429688 -63.019531 89.265625 -63.1875 L 51.65625 -68.453125 C 39.945312 -70.117188 30.539062 -73.960938 23.4375 -79.984375 C 16.332031 -86.003906 12.78125 -96.035156 12.78125 -110.078125 L 12.78125 -136.40625 C 12.78125 -150.613281 17.378906 -161.519531 26.578125 -169.125 C 35.773438 -176.726562 48.476562 -180.53125 64.6875 -180.53125 L 134.890625 -180.53125 C 138.066406 -180.53125 140.363281 -179.816406 141.78125 -178.390625 C 143.207031 -176.972656 143.921875 -174.675781 143.921875 -171.5 L 143.921875 -141.671875 C 143.921875 -138.492188 143.207031 -136.191406 141.78125 -134.765625 C 140.363281 -133.347656 138.066406 -132.640625 134.890625 -132.640625 L 76.46875 -132.640625 C 74.300781 -132.640625 72.628906 -131.925781 71.453125 -130.5 C 70.285156 -129.082031 69.703125 -127.285156 69.703125 -125.109375 C 69.703125 -122.941406 70.285156 -121.101562 71.453125 -119.59375 C 72.628906 -118.09375 74.300781 -117.257812 76.46875 -117.09375 L 113.828125 -112.078125 C 125.535156 -110.410156 134.984375 -106.566406 142.171875 -100.546875 C 149.359375 -94.523438 152.953125 -84.492188 152.953125 -70.453125 L 152.953125 -44.125 C 152.953125 -29.914062 148.3125 -19.007812 139.03125 -11.40625 C 129.75 -3.800781 117.085938 0 101.046875 0 Z M 101.046875 0 "/></g></g></g></svg>